<?xml version="1.0" encoding="UTF-8" standalone="no"?>
<svg
   width="700pt"
   height="500pt"
   viewBox="0 0 700 500"
   version="1.1"
   id="svg15"
   sodipodi:docname="logo.svg"
   inkscape:version="1.2.2 (b0a84865, 2022-12-01)"
   xmlns:inkscape="http://www.inkscape.org/namespaces/inkscape"
   xmlns:sodipodi="http://sodipodi.sourceforge.net/DTD/sodipodi-0.dtd"
   xmlns="http://www.w3.org/2000/svg"
   xmlns:svg="http://www.w3.org/2000/svg"
   xmlns:rdf="http://www.w3.org/1999/02/22-rdf-syntax-ns#"
   xmlns:cc="http://creativecommons.org/ns#"
   xmlns:dc="http://purl.org/dc/elements/1.1/">
  <metadata
     id="metadata21">
    <rdf:RDF>
      <cc:Work
         rdf:about="">
        <dc:format>image/svg+xml</dc:format>
        <dc:type
           rdf:resource="http://purl.org/dc/dcmitype/StillImage" />
      </cc:Work>
    </rdf:RDF>
  </metadata>
  <defs
     id="defs19" />
  <sodipodi:namedview
     pagecolor="#ffffff"
     bordercolor="#666666"
     borderopacity="1"
     objecttolerance="10"
     gridtolerance="10"
     guidetolerance="10"
     inkscape:pageopacity="0"
     inkscape:pageshadow="2"
     inkscape:window-width="1680"
     inkscape:window-height="1050"
     id="namedview17"
     showgrid="false"
     inkscape:zoom="0.82633565"
     inkscape:cx="637.15029"
     inkscape:cy="382.41119"
     inkscape:window-x="0"
     inkscape:window-y="0"
     inkscape:window-maximized="0"
     inkscape:current-layer="surface763305"
     inkscape:showpageshadow="2"
     inkscape:pagecheckerboard="0"
     inkscape:deskcolor="#d1d1d1"
     inkscape:document-units="pt" />
  <g
     id="surface763305">
    <path
       style="fill:#ca3a33;fill-opacity:1;fill-rule:nonzero;stroke:none"
       d="m 234.42578,352.5 c 0,60.75 -49.25,110 -110,110 -60.749999,0 -109.999999,-49.25 -109.999999,-110 0,-60.75 49.25,-110 109.999999,-110 60.75,0 110,49.25 110,110"
       id="path2" />
    <path
       style="fill:#389723;fill-opacity:1;fill-rule:nonzero;stroke:none"
       d="m 456.54389,135 c 0,60.75 -49.25,110 -110,110 -60.75,0 -110,-49.25 -110,-110 0,-60.75 49.25,-110 110,-110 60.75,0 110,49.25 110,110"
       id="path6" />
    <path
       style="fill:#9457b0;fill-opacity:1;fill-rule:nonzero;stroke:none"
       d="m 666.1909,352.5 c 0,60.75 -49.25,110 -110,110 -60.75,0 -110,-49.25 -110,-110 0,-60.75 49.25,-110 110,-110 60.75,0 110,49.25 110,110"
       id="path8" />
    <path
       style="fill:none;stroke:#ffffff;stroke-width:5;stroke-linecap:round;stroke-dasharray:none"
       d="m 48.103939,390.27724 c 62.760651,-210.81212 61.076511,137.58868 110.729821,-44.47345 5.33198,-19.55057 7.61233,-39.32063 10.89146,-58.9954"
       id="path21327" />
    <path
       style="fill:none;stroke:#ffffff;stroke-width:5;stroke-linecap:round;stroke-dasharray:none"
       d="m 526.42046,314.94466 c 11.37758,114.46375 81.68594,125.85172 81.68594,-3.63049"
       id="path21329" />
    <path
       style="fill:none;stroke:#ffffff;stroke-width:5;stroke-linecap:round;stroke-dasharray:none"
       d="m 269.56358,93.48501 c 4.00385,17.65994 1.33815,78.27072 20.8753,88.03929 18.61363,9.30682 19.80308,-52.72434 25.4134,-49.91918 13.82048,6.91023 9.18672,76.2402 19.06005,76.2402 9.10568,0 4.3588,-82.3246 26.32102,-115.26793 17.90401,-26.856003 51.73443,150.0823 51.73443,35.39724 0,-17.80147 0.90762,-35.54898 0.90762,-53.549668"
       id="path21333" />
  </g>
</svg>
