<?xml version="1.0" encoding="UTF-8" standalone="no"?>
<svg
   width="500pt"
   height="500pt"
   viewBox="0 0 500 500"
   version="1.1"
   id="svg15"
   sodipodi:docname="logo.svg"
   inkscape:version="1.2.2 (b0a84865, 2022-12-01)"
   xmlns:inkscape="http://www.inkscape.org/namespaces/inkscape"
   xmlns:sodipodi="http://sodipodi.sourceforge.net/DTD/sodipodi-0.dtd"
   xmlns="http://www.w3.org/2000/svg"
   xmlns:svg="http://www.w3.org/2000/svg"
   xmlns:rdf="http://www.w3.org/1999/02/22-rdf-syntax-ns#"
   xmlns:cc="http://creativecommons.org/ns#"
   xmlns:dc="http://purl.org/dc/elements/1.1/">
  <metadata
     id="metadata21">
    <rdf:RDF>
      <cc:Work
         rdf:about="">
        <dc:format>image/svg+xml</dc:format>
        <dc:type
           rdf:resource="http://purl.org/dc/dcmitype/StillImage" />
      </cc:Work>
    </rdf:RDF>
  </metadata>
  <defs
     id="defs19" />
  <sodipodi:namedview
     pagecolor="#ffffff"
     bordercolor="#666666"
     borderopacity="1"
     objecttolerance="10"
     gridtolerance="10"
     guidetolerance="10"
     inkscape:pageopacity="0"
     inkscape:pageshadow="2"
     inkscape:window-width="1680"
     inkscape:window-height="1050"
     id="namedview17"
     showgrid="false"
     inkscape:zoom="1.2644317"
     inkscape:cx="343.63264"
     inkscape:cy="275.22246"
     inkscape:window-x="0"
     inkscape:window-y="0"
     inkscape:window-maximized="0"
     inkscape:current-layer="surface763305"
     inkscape:showpageshadow="2"
     inkscape:pagecheckerboard="0"
     inkscape:deskcolor="#d1d1d1"
     inkscape:document-units="pt" />
  <g
     id="surface763305">
    <path
       style=" stroke:none;fill-rule:nonzero;fill:rgb(79.6%,23.5%,20%);fill-opacity:1;"
       d="M 234.425781 352.5 C 234.425781 413.25 185.175781 462.5 124.425781 462.5 C 63.675781 462.5 14.425781 413.25 14.425781 352.5 C 14.425781 291.75 63.675781 242.5 124.425781 242.5 C 185.175781 242.5 234.425781 291.75 234.425781 352.5 "
       id="path2" />
    <path
       style=" stroke:none;fill-rule:nonzero;fill:rgb(22%,59.6%,14.9%);fill-opacity:1;"
       d="M 360 135 C 360 195.75 310.75 245 250 245 C 189.25 245 140 195.75 140 135 C 140 74.25 189.25 25 250 25 C 310.75 25 360 74.25 360 135 "
       id="path6" />
    <path
       style=" stroke:none;fill-rule:nonzero;fill:rgb(58.4%,34.5%,69.8%);fill-opacity:1;"
       d="M 485.574219 352.5 C 485.574219 413.25 436.324219 462.5 375.574219 462.5 C 314.824219 462.5 265.574219 413.25 265.574219 352.5 C 265.574219 291.75 314.824219 242.5 375.574219 242.5 C 436.324219 242.5 485.574219 291.75 485.574219 352.5 "
       id="path8" />
    <text
       xml:space="preserve"
       style="font-size:8.00002px;line-height:0px;font-family:AppleMyungjo;-inkscape-font-specification:AppleMyungjo;fill:#000000;stroke:#000000;stroke-width:0.283465;stroke-linecap:round"
       x="202.12703"
       y="200.47838"
       id="text10901"><tspan
         sodipodi:role="line"
         id="tspan10899"
         style="stroke-width:0.283465"
         x="202.12703"
         y="200.47838">$x^6 + ax^4 + bx^2 + c$</tspan></text>
  </g>
</svg>
