<?xml version="1.0" encoding="UTF-8" standalone="no"?>
<svg
   inkscape:version="1.2.2 (b0a84865, 2022-12-01)"
   sodipodi:docname="logo.svg"
   id="svg15"
   version="1.1"
   viewBox="0 0 500 500"
   height="500pt"
   width="500pt"
   xmlns:inkscape="http://www.inkscape.org/namespaces/inkscape"
   xmlns:sodipodi="http://sodipodi.sourceforge.net/DTD/sodipodi-0.dtd"
   xmlns="http://www.w3.org/2000/svg"
   xmlns:svg="http://www.w3.org/2000/svg"
   xmlns:rdf="http://www.w3.org/1999/02/22-rdf-syntax-ns#"
   xmlns:cc="http://creativecommons.org/ns#"
   xmlns:dc="http://purl.org/dc/elements/1.1/">
  <metadata
     id="metadata21">
    <rdf:RDF>
      <cc:Work
         rdf:about="">
        <dc:format>image/svg+xml</dc:format>
        <dc:type
           rdf:resource="http://purl.org/dc/dcmitype/StillImage" />
      </cc:Work>
    </rdf:RDF>
  </metadata>
  <defs
     id="defs19">
    <marker
       style="overflow:visible"
       refX="0"
       refY="0"
       orient="auto-start-reverse"
       inkscape:stockid="Arrow1L1384482498029282"
       markerWidth="8.75"
       markerHeight="5"
       viewBox="0 0 8.75 5"
       inkscape:isstock="true"
       inkscape:collect="always"
       preserveAspectRatio="xMidYMid"
       id="Arrow1L1384482498029282">
      <path
         style="fill:#000000;fill-rule:evenodd;stroke:#000000"
         d="M 0,0 5,-5 -12.5,0 5,5 Z"
         id="path8191"
         transform="scale(-0.5)" />
    </marker>
    <marker
       style="overflow:visible"
       refX="0"
       refY="0"
       orient="auto-start-reverse"
       inkscape:stockid="Arrow1L138448249367809"
       markerWidth="8.75"
       markerHeight="5"
       viewBox="0 0 8.75 5"
       inkscape:isstock="true"
       inkscape:collect="always"
       preserveAspectRatio="xMidYMid"
       id="Arrow1L138448249367809">
      <path
         style="fill:#000000;fill-rule:evenodd;stroke:#000000"
         d="M 0,0 5,-5 -12.5,0 5,5 Z"
         id="path8194"
         transform="scale(-0.5)" />
    </marker>
  </defs>
  <sodipodi:namedview
     pagecolor="#ffffff"
     bordercolor="#666666"
     borderopacity="1"
     objecttolerance="10"
     gridtolerance="10"
     guidetolerance="10"
     inkscape:pageopacity="0"
     inkscape:pageshadow="2"
     inkscape:window-width="1680"
     inkscape:window-height="938"
     id="namedview17"
     showgrid="false"
     inkscape:zoom="1.055334"
     inkscape:cx="411.71798"
     inkscape:cy="281.42748"
     inkscape:window-x="0"
     inkscape:window-y="25"
     inkscape:window-maximized="0"
     inkscape:current-layer="surface763305"
     inkscape:showpageshadow="2"
     inkscape:pagecheckerboard="0"
     inkscape:deskcolor="#d1d1d1"
     inkscape:document-units="pt" />
  <g
     id="surface763305">
    <path
       style="fill:#ca3a33;fill-opacity:1;fill-rule:nonzero;stroke:none;stroke-width:1.04545"
       d="M 240,380 C 240,443.51136 188.51136,495 125,495 61.48864,495 10,443.51136 10,380 10,316.48864 61.48864,265 125,265 c 63.51136,0 115,51.48864 115,115"
       id="path2" />
    <path
       style="fill:#389723;fill-opacity:1;fill-rule:nonzero;stroke:none;stroke-width:1.22727"
       d="M 385,140 C 385,214.55681 324.55681,275 250,275 175.44319,275 115,214.55681 115,140 115,65.443181 175.44319,5 250,5 324.55681,5 385,65.443181 385,140"
       id="path6" />
    <path
       style="fill:#9457b0;fill-opacity:1;fill-rule:nonzero;stroke:none;stroke-width:1.04544"
       d="m 490,380 c 0,63.51137 -51.48863,115 -115,115 -63.51137,0 -115,-51.48863 -115,-115 0,-63.51137 51.48863,-115 115,-115 63.51137,0 115,51.48863 115,115"
       id="path8" />
    <path
       style="fill:none;stroke:#000000;stroke-width:7;stroke-linecap:round;stroke-dasharray:none"
       d="M 40.90326,450.64724 C 42.09647,421.9244 58.06128,338.71751 81.3188,320.2856 c 16.17615,-12.81983 32.81904,17.73579 45.86475,75.96061 17.70484,79.01921 56.06602,96.17886 79.58523,-89.41863"
       id="path36728"
       sodipodi:nodetypes="cssc" />
    <path
       style="fill:none;stroke:#000000;stroke-width:5;stroke-linecap:round;stroke-dasharray:none"
       d="m 315.2983,299.62597 c 13.58713,241.26413 105.94997,244.38668 118.69112,0.75101"
       id="path36732"
       sodipodi:nodetypes="cc" />
    <path
       style="fill:none;stroke:#000000;stroke-width:6;stroke-linecap:round;stroke-miterlimit:4;stroke-dasharray:none;marker-end:url(#Arrow1L138448249367809)"
       d="m 108.47346,163.952 c -39.26045,7.54685 -64.59832,44.60605 -64.59832,84.04052"
       id="path41102" />
    <path
       style="fill:#000000;stroke:#000000;stroke-width:2;stroke-linecap:round;stroke-miterlimit:1.8;stroke-dasharray:none"
       d="M 16.62186,384.35193 H 231.735"
       id="path3134"
       sodipodi:nodetypes="cc" />
    <circle
       style="fill:#000000;stroke:#000000;stroke-width:1.53925;stroke-linecap:round;stroke-miterlimit:1.8"
       id="path3192"
       cx="52.444874"
       cy="384.39151"
       r="10.992368" />
    <path
       style="fill:none;stroke:#000000;stroke-width:7;stroke-linecap:round;stroke-miterlimit:1.8;stroke-dasharray:none"
       d="m 146.03632,67.077347 c 3.06201,47.132883 14.18682,142.655963 30.69988,141.272833 11.15138,-0.93404 24.4031,-86.3081 33.42505,-106.681 18.11836,-37.333842 31.44568,74.75803 47.41783,74.07594 17.88588,-0.76381 25.32301,-100.375739 39.86955,-100.146374 23.04539,0.363371 16.54659,163.185404 40.97836,151.069184 13.21497,-6.55359 22.23768,-141.76488 21.51179,-150.475619"
       id="path4981"
       sodipodi:nodetypes="cscsssc" />
    <path
       style="fill:#000000;stroke:#000000;stroke-width:2;stroke-linecap:round;stroke-miterlimit:1.8;stroke-dasharray:none"
       d="M 267.46216,384.35193 H 482.5753"
       id="path21307"
       sodipodi:nodetypes="cc" />
    <circle
       style="fill:#000000;stroke:#000000;stroke-width:1.53925;stroke-linecap:round;stroke-miterlimit:1.8"
       id="circle21311"
       cx="124.08952"
       cy="384.39151"
       r="10.992368" />
    <circle
       style="fill:#000000;stroke:#000000;stroke-width:1.53925;stroke-linecap:round;stroke-miterlimit:1.8"
       id="circle21313"
       cx="193.82631"
       cy="384.39151"
       r="10.992368" />
    <circle
       style="fill:#000000;stroke:#000000;stroke-width:1.53925;stroke-linecap:round;stroke-miterlimit:1.8"
       id="circle21315"
       cx="324.9718"
       cy="384.39151"
       r="10.992368" />
    <circle
       style="fill:#000000;stroke:#000000;stroke-width:1.53925;stroke-linecap:round;stroke-miterlimit:1.8"
       id="circle21317"
       cx="425.19092"
       cy="384.39151"
       r="10.992368" />
    <path
       style="fill:#ffffff;stroke:#000000;stroke-width:2;stroke-linecap:round;stroke-miterlimit:1.8;stroke-dasharray:none"
       d="M 122.88182,135.30981 H 375.46148"
       id="path21319"
       sodipodi:nodetypes="cc" />
    <circle
       style="fill:#000000;stroke:#000000;stroke-width:1.33469;stroke-linecap:round;stroke-miterlimit:1.8"
       id="circle22797"
       cx="153.31432"
       cy="135.24493"
       r="9.5315504" />
    <circle
       style="fill:#000000;stroke:#000000;stroke-width:1.33469;stroke-linecap:round;stroke-miterlimit:1.8"
       id="circle28016"
       cx="200.76872"
       cy="135.24493"
       r="9.5315504" />
    <circle
       style="fill:#000000;stroke:#000000;stroke-width:1.33469;stroke-linecap:round;stroke-miterlimit:1.8"
       id="circle28018"
       cx="238.09453"
       cy="135.24493"
       r="9.5315504" />
    <circle
       style="fill:#000000;stroke:#000000;stroke-width:1.33469;stroke-linecap:round;stroke-miterlimit:1.8"
       id="circle28020"
       cx="276.35815"
       cy="135.24493"
       r="9.5315504" />
    <circle
       style="fill:#000000;stroke:#000000;stroke-width:1.33469;stroke-linecap:round;stroke-miterlimit:1.8"
       id="circle28022"
       cx="315.18445"
       cy="135.24493"
       r="9.5315504" />
    <circle
       style="fill:#000000;stroke:#000000;stroke-width:1.33469;stroke-linecap:round;stroke-miterlimit:1.8"
       id="circle28024"
       cx="356.07404"
       cy="135.24493"
       r="9.5315504" />
    <path
       style="fill:none;stroke:#000000;stroke-width:6;stroke-linecap:round;stroke-miterlimit:4;stroke-dasharray:none;marker-end:url(#Arrow1L1384482498029282)"
       d="m 391.20285,163.952 c 39.26044,7.54685 64.59832,44.60605 64.59832,84.04052"
       id="path39471" />
  </g>
</svg>
